<svg height='300px' width='300px'  fill="#000000" xmlns="http://www.w3.org/2000/svg" data-name="Camada 1" viewBox="0 0 105 105" x="0px" y="0px"><title>argentina</title><path d="M52.5,1.5a51,51,0,1,0,51,51A51.06,51.06,0,0,0,52.5,1.5Zm0,2a49,49,0,0,1,42.12,24H10.38A49,49,0,0,1,52.5,3.5Zm0,98a49,49,0,0,1-42.12-24H94.62A49,49,0,0,1,52.5,101.5ZM9.25,75.5a48.88,48.88,0,0,1,0-46h86.5a48.88,48.88,0,0,1,0,46Z"></path><path d="M70.14,50.4H64.07l5.61-2.32-.29-1-6,1.19,5-3.37L68,44.08l-5.61,2.33,4.3-4.29-.63-.77-5,3.38,3.38-5-.77-.63-4.29,4.3,2.33-5.61-.88-.47-3.37,5,1.19-6-.95-.29-2.32,5.61V35.62l-1-.1-1.18,6-1.18-6-1,.1v6.07L48.7,36.08l-1,.29,1.19,6-3.37-5-.88.47L47,43.35l-4.29-4.3-.77.63,3.38,5-5.05-3.38-.63.77L44,46.41l-5.61-2.33-.47.88,5.06,3.37-6-1.19-.29,1,5.62,2.32H36.23l-.1,1,6,1.18-6,1.18.1,1h6.08l-5.62,2.32L37,58l6-1.19-5.06,3.37.47.88L44,58.74,39.66,63l.63.77,5.05-3.38-3.38,5,.77.64L47,61.8l-2.33,5.61.88.47,3.37-5.06-1.19,6,1,.29L51,63.45v6.08l1,.1,1.18-6,1.18,6,1-.1V63.45l2.32,5.62.95-.29-1.19-6,3.37,5.06.88-.47L59.35,61.8l4.29,4.3.77-.64-3.38-5,5,3.38.63-.77-4.3-4.29L68,61.07l.47-.88-5-3.37,6,1.19.29-.95-5.61-2.32h6.07l.1-1-6-1.18,6-1.18Zm-9,2.58c0,.25,0,.5-.08.75s-.09.54-.15.79-.14.5-.23.73-.19.51-.3.75a6.29,6.29,0,0,1-.37.67,7,7,0,0,1-.44.67c-.16.2-.32.4-.49.59a7.66,7.66,0,0,1-.57.57A6.86,6.86,0,0,1,58,59a6.52,6.52,0,0,1-.67.45,7.12,7.12,0,0,1-.67.36,6.81,6.81,0,0,1-.74.31,6.14,6.14,0,0,1-.73.22,6.91,6.91,0,0,1-.79.16c-.25,0-.5.06-.76.07l-.4,0-.41,0c-.25,0-.51,0-.75-.07a7.08,7.08,0,0,1-.8-.16,6,6,0,0,1-.72-.22,6.21,6.21,0,0,1-.75-.31c-.23-.11-.45-.23-.67-.36s-.45-.29-.67-.45-.4-.31-.59-.48a7.66,7.66,0,0,1-.57-.57c-.17-.19-.33-.39-.48-.59s-.31-.44-.45-.67-.25-.44-.36-.67a6.21,6.21,0,0,1-.31-.75,5.62,5.62,0,0,1-.22-.73,6.49,6.49,0,0,1-.16-.79,6.34,6.34,0,0,1-.07-.75c0-.14,0-.27,0-.41s0-.27,0-.4a6.31,6.31,0,0,1,.07-.76,6.91,6.91,0,0,1,.16-.79,6.14,6.14,0,0,1,.22-.73,6.81,6.81,0,0,1,.31-.74c.11-.23.23-.46.36-.68a7.66,7.66,0,0,1,.45-.66,6.86,6.86,0,0,1,.48-.59,7.66,7.66,0,0,1,.57-.57c.19-.17.39-.33.59-.49a7.83,7.83,0,0,1,.67-.45c.22-.13.44-.25.67-.36s.49-.21.75-.31l.72-.22c.26-.06.53-.11.8-.15s.5-.06.75-.08l.41,0,.4,0c.26,0,.51,0,.76.08s.53.09.79.15l.73.22.74.31c.23.11.46.23.68.36a7.66,7.66,0,0,1,.66.45c.21.16.4.32.59.49a7.66,7.66,0,0,1,.57.57c.17.19.33.38.49.59a7.66,7.66,0,0,1,.45.66c.13.22.25.45.36.68s.21.49.3.74.16.48.23.73.11.52.15.79.06.5.08.76,0,.27,0,.4S61.17,52.84,61.17,53Z"></path></svg>