<svg height='300px' width='300px'  fill="#000000" xmlns="http://www.w3.org/2000/svg" data-name="Camada 1" viewBox="0 0 105 105" x="0px" y="0px"><title>canada</title><rect x="19" y="14" width="2" height="76"></rect><path d="M75.69,52.42c-.62-.27-1.23-.58-1.84-.86s-.85-.54-.7-1.34a4.6,4.6,0,0,1,.13-.5c.56-2.06,1.13-4.11,1.7-6.17.12-.45.14-.6-.09-.6a3.34,3.34,0,0,0-.41.06l-.21.05-5.49,1.15a3.13,3.13,0,0,1-.48,0c-.53,0-.8-.27-1-.93s-.4-1.41-.61-2.1c0-.18,0-.43-.24-.48h0c-.15,0-.24.19-.35.31-1.57,1.75-3.14,3.52-4.7,5.28a2.07,2.07,0,0,1-.73.58,1.11,1.11,0,0,1-.41.1c-.38,0-.65-.27-.72-.74a2.91,2.91,0,0,1,.05-.93Q60.63,39.65,61.7,34c0-.13.12-.29,0-.4a.24.24,0,0,0-.13-.05c-.1,0-.2.1-.29.14-1,.48-1.88,1-2.83,1.44a1.93,1.93,0,0,1-.82.23c-.44,0-.77-.28-1.07-.85-1.25-2.3-2.48-4.61-3.72-6.91-.09-.16-.12-.41-.34-.41h0c-.19,0-.23.23-.31.38L48.71,34c-.48.91-.81,1.31-1.33,1.31a3.31,3.31,0,0,1-1.33-.47l-2.31-1.2a.73.73,0,0,0-.31-.14.15.15,0,0,0-.11,0c-.16.11,0,.29,0,.44a.77.77,0,0,0,0,.15q1,5.4,2,10.78a4.68,4.68,0,0,1,.14,1.29c-.06.51-.34.8-.74.8a1.09,1.09,0,0,1-.49-.13,2.37,2.37,0,0,1-.69-.61L38.87,41c-.16-.18-.26-.27-.33-.27s-.14.13-.21.39c-.22.72-.41,1.43-.62,2.15s-.45,1-1,1a3.36,3.36,0,0,1-.58-.07L30.64,43a2.42,2.42,0,0,0-.52-.09c-.25,0-.21.17-.07.69.36,1.28.72,2.57,1.07,3.86.25.9.51,1.8.72,2.71s.05,1-.67,1.34-1.22.59-1.84.86c-.37.17-.47.3-.09.59,1,.76,1.91,1.55,2.87,2.32L40,61.68a1.6,1.6,0,0,1,.64,2.1c-.22.75-.45,1.49-.68,2.24-.16.51-.17.66.14.66l.39,0,9.93-1.4a2.9,2.9,0,0,1,.48,0c.85,0,1.14.44,1,1.49,0,.1,0,.21,0,.31-.14,3.19-.3,6.37-.41,9.56,0,1.38-.19,1.45.64,1.45h.82c.42,0,.52-.2.51-.6-.1-3.33-.19-6.65-.28-10h0v-1c0-.87.27-1.25,1-1.25l.37,0c1.88.24,3.74.51,5.61.77l4.53.64.31,0c.28,0,.29-.13.16-.55-.24-.78-.47-1.56-.71-2.34a1.61,1.61,0,0,1,.64-2.1l3.47-2.82L75.75,53C76.1,52.73,76.09,52.59,75.69,52.42ZM69,55.89l-1.76,1.43-1,.81-2.48,2a3.56,3.56,0,0,0-1.3,4.19l-.34,0L60.4,64,59,63.83l-4.2-.58a4.64,4.64,0,0,0-.63,0,3.13,3.13,0,0,0-1.62.42,3.2,3.2,0,0,0-1.67-.42,5.38,5.38,0,0,0-.76.06L44.94,64l-2.42.34a3.58,3.58,0,0,0-1.31-4.2l-5.27-4.27-2.57-2.09-.84-.68a2.81,2.81,0,0,0,1.26-3.33c-.17-.74-.37-1.45-.56-2.15L33.05,47c-.14-.49-.27-1-.41-1.47l3.09.64a4.67,4.67,0,0,0,1,.12,2.77,2.77,0,0,0,2.64-1.72l2.75,3.09a4.19,4.19,0,0,0,1.27,1,3,3,0,0,0,1.38.34,2.75,2.75,0,0,0,2.73-2.59,5.66,5.66,0,0,0-.13-1.73l0-.14L45.9,37a4,4,0,0,0,1.48.33c1.83,0,2.65-1.54,3.1-2.37l2-3.79.1.19q1.09,2,2.2,4.08a3.15,3.15,0,0,0,2.83,1.89A3.66,3.66,0,0,0,59.09,37l-1.5,8a4.68,4.68,0,0,0-.06,1.57A2.73,2.73,0,0,0,60.23,49a3,3,0,0,0,1.19-.26,4.09,4.09,0,0,0,1.44-1.09l2.78-3.12a2.82,2.82,0,0,0,2.66,1.71,4.78,4.78,0,0,0,.88-.09l3.18-.67-1,3.69,0,.05c0,.21-.11.41-.15.62a2.8,2.8,0,0,0,1.29,3.23Z"></path><path d="M52,1a51,51,0,1,0,51,51A51.06,51.06,0,0,0,52,1ZM3,52A49,49,0,0,1,83,14.09V89.91A49,49,0,0,1,3,52ZM85,88.19V15.81a48.93,48.93,0,0,1,0,72.38Z"></path></svg>