<svg height='300px' width='300px'  fill="#000000" xmlns:dc="http://purl.org/dc/elements/1.1/" xmlns:cc="http://creativecommons.org/ns#" xmlns:rdf="http://www.w3.org/1999/02/22-rdf-syntax-ns#" xmlns:svg="http://www.w3.org/2000/svg" xmlns="http://www.w3.org/2000/svg" xmlns:sodipodi="http://sodipodi.sourceforge.net/DTD/sodipodi-0.dtd" xmlns:inkscape="http://www.inkscape.org/namespaces/inkscape" viewBox="0 0 48 48.000001" version="1.1" x="0px" y="0px"><g transform="translate(0,-1004.3622)"><path style="color:#000000;font-style:normal;font-variant:normal;font-weight:normal;font-stretch:normal;font-size:medium;line-height:normal;font-family:sans-serif;text-indent:0;text-align:start;text-decoration:none;text-decoration-line:none;text-decoration-style:solid;text-decoration-color:#000000;letter-spacing:normal;word-spacing:normal;text-transform:none;direction:ltr;block-progression:tb;writing-mode:lr-tb;baseline-shift:baseline;text-anchor:start;white-space:normal;clip-rule:nonzero;display:inline;overflow:visible;visibility:visible;opacity:1;isolation:auto;mix-blend-mode:normal;color-interpolation:sRGB;color-interpolation-filters:linearRGB;solid-color:#000000;solid-opacity:1;fill:#000000;fill-opacity:1;fill-rule:nonzero;stroke:none;stroke-width:15.99999905;stroke-linecap:butt;stroke-linejoin:miter;stroke-miterlimit:4;stroke-dasharray:none;stroke-dashoffset:0;stroke-opacity:1;color-rendering:auto;image-rendering:auto;shape-rendering:auto;text-rendering:auto;enable-background:accumulate" d="m 24,1004.3622 c -13.282162,0 -24,10.7178 -24,24 0,13.2822 10.717838,24 24,24 13.282162,0 24,-10.7178 24,-24 0,-13.2822 -10.717838,-24 -24,-24 z m 0,1.6 c 12.423438,0 22.4,9.9766 22.4,22.4 0,12.4234 -9.976562,22.4 -22.4,22.4 -12.423438,0 -22.4,-9.9766 -22.4,-22.4 0,-12.4234 9.976562,-22.4 22.4,-22.4 z"></path><path d="m 23.99854,1013.8263 0.42995,1.3187 1.38789,0 -1.12243,0.8165 0.42704,1.3187 -1.12245,-0.8137 -1.12241,0.8137 0.42704,-1.3187 -1.12243,-0.8165 1.39075,0 0.42705,-1.3187" style="" fill="#000000" fill-opacity="1" fill-rule="nonzero" stroke="none"></path><path d="m 17.51785,1015.5518 0.42996,1.3215 1.38789,0 -1.12244,0.8166 0.42993,1.3215 -1.12243,-0.8136 -1.12532,0.8165 0.42993,-1.3215 -1.12532,-0.8166 1.39076,0 0.42704,-1.3215" style="" fill="#000000" fill-opacity="1" fill-rule="nonzero" stroke="none"></path><path d="m 12.77711,1020.2868 0.42993,1.3186 1.39078,0 -1.12535,0.8166 0.43282,1.3215 -1.1253,-0.8165 -1.12243,0.8194 0.42704,-1.3215 -1.12243,-0.8166 1.38789,0 0.42705,-1.3215" style="" fill="#000000" fill-opacity="1" fill-rule="nonzero" stroke="none"></path><path d="m 30.46482,1015.572 0.43281,1.3215 1.3879,0 -1.11955,0.8195 0.42991,1.3215 -1.1253,-0.8165 -1.12246,0.8165 0.42995,-1.3186 -1.1282,-0.8166 1.39078,0 0.42416,-1.3215" style="" fill="#000000" fill-opacity="1" fill-rule="nonzero" stroke="none"></path><path d="m 36.83009,1021.5073 -1.12246,0.8166 0.42995,1.3215 -1.12243,-0.8165 -1.12532,0.8165 0.4299,-1.3215 -1.12531,-0.8137 1.38791,0 0.42993,-1.3244 0.42705,1.3215 1.39078,0" style="" fill="#000000" fill-opacity="1" fill-rule="nonzero" stroke="none"></path><path d="m 38.61905,1028.0082 -1.1282,0.8108 0.42416,1.3216 -1.11955,-0.8195 -1.1282,0.8108 0.43281,-1.3186 -1.11957,-0.8195 1.38792,0 0.4357,-1.3187 0.42416,1.3216 1.39077,0" style="" fill="#000000" fill-opacity="1" fill-rule="nonzero" stroke="none"></path><path d="m 36.24434,1036.3818 -1.12243,-0.8137 -1.12532,0.8165 0.42993,-1.3215 -1.12532,-0.8137 1.38789,0 0.42991,-1.3215 0.42995,1.3215 1.39076,0 -1.1253,0.8166 0.42993,1.3215" style="" fill="#000000" fill-opacity="1" fill-rule="nonzero" stroke="none"></path><path d="m 22.99154,1042.8971 0.42416,-1.3216 -1.12243,-0.8137 1.38789,0 0.42705,-1.3215 0.43281,1.3187 1.38501,0 -1.11955,0.8194 0.43282,1.3187 -1.12532,-0.8108 -1.12244,0.8166" style="" fill="#000000" fill-opacity="1" fill-rule="nonzero" stroke="none"></path><path d="m 16.50218,1041.1802 0.42704,-1.3186 -1.12529,-0.8166 1.39078,0 0.42704,-1.3244 0.42993,1.3215 1.38789,0 -1.12245,0.8166 0.43281,1.3215 -1.12529,-0.8137 -1.12246,0.8167" style="" fill="#000000" fill-opacity="1" fill-rule="nonzero" stroke="none"></path><path d="m 31.50644,1041.1514 -1.12241,-0.8224 -1.12821,0.8137 0.4357,-1.3215 -1.11955,-0.8195 1.3879,0 0.43281,-1.3186 0.42416,1.3215 1.39078,0 -1.12823,0.8136 0.42705,1.3244" style="" fill="#000000" fill-opacity="1" fill-rule="nonzero" stroke="none"></path><path d="m 9.38095,1028.0342 1.38789,0 0.42705,-1.3244 0.43281,1.3186 1.3879,0 -1.11957,0.8224 0.43281,1.3186 -1.12529,-0.8137 -1.12532,0.8195 0.42704,-1.3215 -1.12532,-0.8149" style="" fill="#000000" fill-opacity="1" fill-rule="nonzero" stroke="none"></path><path d="m 11.75853,1036.376 0.42704,-1.3215 -1.1253,-0.8137 1.39078,0 0.42993,-1.3216 0.42993,1.3216 1.38787,0 -1.12241,0.8165 0.42993,1.3187 -1.12532,-0.8137 -1.12245,0.8166" style="" fill="#000000" fill-opacity="1" fill-rule="nonzero" stroke="none"></path></g></svg>