<?xml version="1.0" encoding="utf-8"?>
<!-- Generator: Adobe Illustrator 17.1.0, SVG Export Plug-In . SVG Version: 6.00 Build 0)  -->
<!DOCTYPE svg PUBLIC "-//W3C//DTD SVG 1.1//EN" "http://www.w3.org/Graphics/SVG/1.1/DTD/svg11.dtd">
<svg version="1.1" id="exchange-dollar" xmlns="http://www.w3.org/2000/svg" xmlns:xlink="http://www.w3.org/1999/xlink" x="0px"
	 y="0px" viewBox="0 0 99.997 99.9956" enable-background="new 0 0 99.997 99.9956" xml:space="preserve">
<path id="exchange-dollar-label" fill="#324058" d="M50.0014,0C22.3877,0,0,22.3882,0,49.9986
	c0,27.6142,22.3877,49.997,50.0014,49.997c27.6119,0,49.9956-22.3828,49.9956-49.997C99.997,22.3882,77.6133,0,50.0014,0z"/>
<g id="exchange-dollar-exchange-dollar">
	<g>
		<path fill="#43C7D2" d="M23.7553,49.1202h-1.9028c0-7.2828,2.8369-14.1304,7.9859-19.2808
			c9.5498-9.5493,24.8745-10.6392,35.645-2.5371l0.0996,0.0879l5.2656,5.2651l-1.3457,1.3457l-5.2168-5.2178
			c-10.0166-7.4887-24.2349-6.4633-33.1011,2.4009C26.3945,35.9756,23.7553,42.3453,23.7553,49.1202L23.7553,49.1202z"/>
	</g>
	<g>
		<path fill="#FFFFFF" d="M50.833,78.1119c-5.7334,0-11.4844-1.7823-16.3194-5.42l-0.1-0.0869l-5.2667-5.2676l1.3462-1.3457
			l5.2193,5.2188c10.0151,7.4922,24.2319,6.4668,33.102-2.3984c4.7881-4.795,7.4278-11.1641,7.4278-17.9371h1.9033
			c0,7.2818-2.835,14.1294-7.9863,19.2828C64.8965,75.4185,57.8769,78.1119,50.833,78.1119L50.833,78.1119z"/>
	</g>
	<g>
		<polygon fill="#43C7D2" points="70.1738,34.2828 60.5263,34.2828 60.5263,32.3785 69.2236,32.3785 69.2236,23.6807 
			71.126,23.6807 71.126,33.3306 70.1738,34.2828 		"/>
	</g>
	<g>
		<polygon fill="#FFFFFF" points="30.7739,76.313 28.8711,76.313 28.8711,66.6665 29.8222,65.7144 39.4721,65.7144 39.4721,67.6167 
			30.7739,67.6167 30.7739,76.313 		"/>
	</g>
	<g>
		<path fill="#EB8619" d="M49.999,65.1665c-3.5898,0-6.1929-0.7871-7.7383-2.3408c-1.5757-1.584-1.5659-3.4853-1.5644-4.1103
			c0.0039-0.5235,0.4292-0.9834,0.9531-0.9834c0.001,0,0.001,0,0.0024,0c0.524,0.0019,0.9488,0.3906,0.9488,0.916
			c-0.002,0.5967-0.0083,1.8125,1.0097,2.833c1.1582,1.166,3.3672,1.7822,6.3887,1.7822c3.458,0,5.9238-0.7246,7.3262-2.1552
			c1.5312-1.5596,1.4922-3.6309,1.4677-4.8682l-0.0029-0.375c0-0.0596-0.5176-6.0039-8.791-6.0039
			c-8.1973,0-9.3008-3.2959-9.3008-6.5205l-0.0019-0.2046c-0.0015-1.6084-0.0069-3.8101,1.6601-5.4795
			c1.4917-1.4956,3.9917-2.2227,7.6426-2.2227c3.4424,0,6.0078,0.8531,7.6221,2.5357c1.7451,1.8179,1.6797,3.9326,1.6767,4.0215
			c-0.0215,0.5263-0.4941,0.9404-0.9902,0.9121c-0.5234-0.021-0.9307-0.4605-0.9131-0.9834
			c0.002-0.0772,0.0098-1.4492-1.1748-2.6616c-1.2461-1.2745-3.3398-1.9205-6.2207-1.9205c-3.0762,0-5.1943,0.5601-6.2959,1.6631
			c-1.1084,1.1109-1.1045,2.7154-1.1025,4.1314v0.2085c0,1.9482,0,4.6162,7.3984,4.6162c8.8789,0,10.6934,6.2383,10.6934,7.9082
			l0.0029,0.3389c0.0264,1.333,0.0781,4.1054-2.0108,6.2363C56.9082,64.2496,53.9863,65.1665,49.999,65.1665L49.999,65.1665z"/>
	</g>
	<g>
		<path fill="#EB8619" d="M50.7002,35.9107c-0.5259,0-0.9522-0.4263-0.9522-0.9522v-3.7099c0-0.5269,0.4263-0.9522,0.9522-0.9522
			c0.5244,0,0.9511,0.4253,0.9511,0.9522v3.7099C51.6513,35.4844,51.2246,35.9107,50.7002,35.9107L50.7002,35.9107z"/>
	</g>
	<g>
		<path fill="#EB8619" d="M50.7759,70.272c-0.5249,0-0.9517-0.4258-0.9517-0.9521v-3.711c0-0.5234,0.4268-0.9492,0.9517-0.9492
			c0.5258,0,0.9516,0.4258,0.9516,0.9492v3.711C51.7275,69.8462,51.3017,70.272,50.7759,70.272L50.7759,70.272z"/>
	</g>
</g>
</svg>
