<svg height='300px' width='300px'  fill="#000000" xmlns="http://www.w3.org/2000/svg" xmlns:xlink="http://www.w3.org/1999/xlink" version="1.1" x="0px" y="0px" viewBox="0 0 48 48" enable-background="new 0 0 48 48" xml:space="preserve"><g><path d="M44.1,23.1c-0.5,0-0.9,0.4-0.9,0.9c0,9.5-6.9,17.4-16,18.9v-2.7l-5.5,3.9l5.5,3.9v-3.3C37.3,43.2,45,34.5,45,24   C45,23.5,44.6,23.1,44.1,23.1z"></path><path d="M21.7,4.9v2.9l5.5-3.9L21.7,0v3.1C11.2,4.3,3,13.2,3,24c0,0.5,0.4,0.9,0.9,0.9s0.9-0.4,0.9-0.9C4.8,14.2,12.2,6.1,21.7,4.9   z"></path><path d="M27,26.9c0-0.4-0.1-0.8-0.4-1.1c-0.3-0.3-0.8-0.5-1.6-0.7v3.4c0.6-0.1,1.1-0.2,1.4-0.5C26.8,27.8,27,27.4,27,26.9z"></path><path d="M34.8,24.1c0-5.8-4.7-10.6-10.6-10.6c-5.8,0-10.6,4.7-10.6,10.6c0,5.8,4.7,10.6,10.6,10.6C30.1,34.7,34.8,29.9,34.8,24.1z    M19.1,28.5l1.4-1.7c1.1,0.9,2.2,1.5,3.3,1.7v-3.7c-1.4-0.3-2.5-0.8-3.2-1.4c-0.7-0.6-1-1.4-1-2.5c0-1.1,0.4-2,1.2-2.7   c0.8-0.7,1.8-1.1,3-1.1v-1H25v1c1.4,0.1,2.7,0.6,4,1.4l-1.2,1.8c-0.8-0.6-1.7-1-2.7-1.1v3.6h0.1c1.5,0.3,2.5,0.8,3.2,1.4   c0.7,0.6,1,1.4,1,2.5s-0.4,2-1.2,2.7c-0.8,0.7-1.8,1.1-3.1,1.1V32h-1.2v-1.4C22.1,30.4,20.5,29.7,19.1,28.5z"></path><path d="M23.8,19.2c-0.6,0.1-1,0.2-1.3,0.5C22.1,20,22,20.3,22,20.8c0,0.4,0.1,0.8,0.4,1c0.3,0.2,0.7,0.5,1.4,0.7V19.2z"></path><path d="M39.3,24.1c0-8.3-6.7-15-15-15c-8.3,0-15,6.7-15,15c0,8.3,6.7,15,15,15C32.5,39.1,39.3,32.4,39.3,24.1z M11.9,24.1   c0-6.8,5.5-12.4,12.4-12.4c6.8,0,12.4,5.5,12.4,12.4c0,6.8-5.5,12.4-12.4,12.4C17.4,36.4,11.9,30.9,11.9,24.1z"></path></g></svg>