<svg height='300px' width='300px'  fill="#000000" xmlns="http://www.w3.org/2000/svg" xmlns:xlink="http://www.w3.org/1999/xlink" version="1.1" x="0px" y="0px" viewBox="0 0 100 100" enable-background="new 0 0 100 100" xml:space="preserve"><g><path d="M68.835,9.28V9.206l-0.897-0.392c-0.104-0.045-0.211-0.074-0.313-0.117c-0.605-0.262-1.24-0.468-1.862-0.703   c-0.783-0.292-1.554-0.612-2.345-0.859c-0.544-0.171-1.108-0.284-1.656-0.437c-0.898-0.243-1.793-0.507-2.703-0.696   C58.687,5.928,58.3,5.895,57.92,5.829c-1.104-0.198-2.208-0.397-3.333-0.511c-1.508-0.155-3.036-0.233-4.585-0.233   C25.236,5.085,5.087,25.234,5.085,50c0,0.598,0.012,1.19,0.037,1.782l0.056,1.436h0.064c0.762,10.781,5.283,20.821,13,28.541   c8.48,8.483,19.762,13.156,31.761,13.156c11.998,0,23.275-4.673,31.76-13.156C90.245,73.274,94.914,61.997,94.914,50   C94.914,31.965,84.209,16.42,68.835,9.28z M91.914,50.218H68.835V38.347h21.41c1.075,3.705,1.682,7.606,1.682,11.653   C91.927,50.074,91.914,50.144,91.914,50.218z M89.235,35.356h-20.4V23.512h13.627C85.338,27.026,87.616,31.029,89.235,35.356z    M79.771,20.52H68.835v-7.923C72.898,14.65,76.599,17.316,79.771,20.52z M10.701,35.537l1.063-0.777l1.681,1.226l-0.647-1.976   l1.683-1.218l-2.079,0.004l-0.237-0.737c5.05-10.602,14.387-18.771,25.788-22.199l0.437,0.315l-0.647,1.974l1.677-1.224   l1.681,1.224l-0.647-1.974l1.684-1.22h-0.682c2.761-0.573,5.616-0.88,8.546-0.88c0.132,0,0.259,0.019,0.391,0.019l-0.28,0.866   l-2.077-0.004l1.683,1.22l-0.645,1.974l1.677-1.224l1.68,1.224l-0.646-1.974l1.68-1.22L51.391,8.96l-0.268-0.829   c1.037,0.029,2.071,0.056,3.085,0.157c0.329,0.033,0.655,0.103,0.98,0.144c1.059,0.132,2.109,0.272,3.14,0.48   c0.26,0.051,0.516,0.134,0.774,0.191l1.479,1.071l-0.646,1.974l1.681-1.224l1.677,1.224l-0.646-1.974l0.124-0.086   c0.218,0.07,0.433,0.154,0.646,0.229c0.82,0.278,1.632,0.563,2.427,0.89v39.019H8.086c-0.002-0.076-0.01-0.15-0.01-0.227   C8.076,44.911,9.032,40.053,10.701,35.537z M68.835,53.218V53.21H91.77c-0.309,4.075-1.198,8.022-2.629,11.768H10.862   c-1.43-3.741-2.322-7.688-2.629-11.76H68.835z M23.361,82.372H76.64c-7.487,6.183-16.804,9.552-26.638,9.552   C40.164,91.924,30.85,88.555,23.361,82.372z M79.887,79.381H20.116c-3.33-3.385-5.981-7.246-7.963-11.411h75.694   C85.865,72.135,83.212,75.996,79.887,79.381z"></path><polygon points="32.113,17.288 33.792,16.064 35.469,17.288 34.824,15.314 36.507,14.094 34.431,14.099 33.792,12.123    33.153,14.099 31.077,14.094 32.758,15.314  "></polygon><polygon points="43.444,17.288 45.123,16.064 46.8,17.288 46.155,15.314 47.838,14.094 45.762,14.099 45.123,12.123 44.484,14.099    42.408,14.094 44.089,15.314  "></polygon><polygon points="54.307,17.288 55.988,16.064 57.665,17.288 57.018,15.314 58.703,14.094 56.622,14.099 55.988,12.123    55.35,14.099 53.269,14.094 54.953,15.314  "></polygon><polygon points="26.579,20.979 28.258,19.756 29.938,20.979 29.291,19.006 30.974,17.786 28.897,17.791 28.258,15.813    27.62,17.791 25.543,17.786 27.226,19.006  "></polygon><polygon points="37.744,20.979 39.42,19.756 41.102,20.979 40.455,19.006 42.138,17.786 40.059,17.791 39.42,15.813 38.782,17.791    36.705,17.786 38.391,19.006  "></polygon><polygon points="49.075,20.979 50.752,19.756 52.432,20.979 51.786,19.006 53.466,17.786 51.391,17.791 50.752,15.813    50.113,17.791 48.037,17.786 49.72,19.006  "></polygon><polygon points="59.936,20.979 61.616,19.756 63.293,20.979 62.646,19.006 64.332,17.786 62.255,17.791 61.616,15.813    60.978,17.791 58.901,17.786 60.582,19.006  "></polygon><polygon points="20.949,26.118 22.63,24.894 24.307,26.118 23.662,24.144 25.345,22.927 23.266,22.929 22.63,20.953 21.991,22.929    19.912,22.927 21.595,24.144  "></polygon><polygon points="32.113,26.118 33.792,24.894 35.469,26.118 34.824,24.144 36.507,22.927 34.431,22.929 33.792,20.953    33.153,22.929 31.077,22.927 32.758,24.144  "></polygon><polygon points="43.444,26.118 45.123,24.894 46.8,26.118 46.155,24.144 47.838,22.927 45.762,22.929 45.123,20.953 44.484,22.929    42.408,22.927 44.089,24.144  "></polygon><polygon points="55.988,20.953 55.35,22.929 53.269,22.927 54.953,24.144 54.307,26.118 55.988,24.894 57.665,26.118    57.018,24.144 58.703,22.927 56.622,22.929  "></polygon><polygon points="15.715,30.848 17.395,29.622 19.074,30.848 18.427,28.87 20.11,27.655 18.033,27.659 17.395,25.681 16.756,27.659    14.679,27.655 16.362,28.87  "></polygon><polygon points="26.579,30.848 28.258,29.622 29.938,30.848 29.291,28.87 30.974,27.655 28.897,27.659 28.258,25.681 27.62,27.659    25.543,27.655 27.226,28.87  "></polygon><polygon points="37.744,30.848 39.42,29.622 41.102,30.848 40.455,28.87 42.138,27.655 40.059,27.659 39.42,25.681 38.782,27.659    36.705,27.655 38.391,28.87  "></polygon><polygon points="49.075,30.848 50.752,29.622 52.432,30.848 51.786,28.87 53.466,27.655 51.391,27.659 50.752,25.681    50.113,27.659 48.037,27.655 49.72,28.87  "></polygon><polygon points="59.936,30.848 61.616,29.622 63.293,30.848 62.646,28.87 64.332,27.655 62.255,27.659 61.616,25.681    60.978,27.659 58.901,27.655 60.582,28.87  "></polygon><polygon points="22.63,30.819 21.991,32.797 19.912,32.793 21.595,34.011 20.949,35.986 22.63,34.76 24.307,35.986 23.662,34.011    25.345,32.793 23.266,32.797  "></polygon><polygon points="32.113,35.986 33.792,34.76 35.469,35.986 34.824,34.011 36.507,32.793 34.431,32.797 33.792,30.819    33.153,32.797 31.077,32.793 32.758,34.011  "></polygon><polygon points="43.444,35.986 45.123,34.76 46.8,35.986 46.155,34.011 47.838,32.793 45.762,32.797 45.123,30.819 44.484,32.797    42.408,32.793 44.089,34.011  "></polygon><polygon points="55.988,30.819 55.35,32.797 53.269,32.793 54.953,34.011 54.307,35.986 55.988,34.76 57.665,35.986 57.018,34.011    58.703,32.793 56.622,32.797  "></polygon><polygon points="15.715,40.033 17.395,38.809 19.074,40.033 18.427,38.057 20.11,36.839 18.033,36.843 17.395,34.866    16.756,36.843 14.679,36.839 16.362,38.057  "></polygon><polygon points="26.579,40.033 28.258,38.809 29.938,40.033 29.291,38.057 30.974,36.839 28.897,36.843 28.258,34.866    27.62,36.843 25.543,36.839 27.226,38.057  "></polygon><polygon points="37.744,40.033 39.42,38.809 41.102,40.033 40.455,38.057 42.138,36.839 40.059,36.843 39.42,34.866 38.782,36.843    36.705,36.839 38.391,38.057  "></polygon><polygon points="49.075,40.033 50.752,38.809 52.432,40.033 51.786,38.057 53.466,36.839 51.391,36.843 50.752,34.866    50.113,36.843 48.037,36.839 49.72,38.057  "></polygon><polygon points="59.936,40.033 61.616,38.809 63.293,40.033 62.646,38.057 64.332,36.839 62.255,36.843 61.616,34.866    60.978,36.843 58.901,36.839 60.582,38.057  "></polygon><polygon points="10.732,43.197 10.087,45.171 11.764,43.947 13.445,45.171 12.798,43.197 14.481,41.978 12.403,41.981    11.764,40.004 11.127,41.981 9.049,41.978  "></polygon><polygon points="23.266,41.981 22.63,40.004 21.991,41.981 19.912,41.978 21.595,43.197 20.949,45.171 22.63,43.947 24.307,45.171    23.662,43.197 25.345,41.978  "></polygon><polygon points="32.113,45.171 33.792,43.947 35.469,45.171 34.824,43.197 36.507,41.978 34.431,41.981 33.792,40.004    33.153,41.981 31.077,41.978 32.758,43.197  "></polygon><polygon points="43.444,45.171 45.123,43.947 46.8,45.171 46.155,43.197 47.838,41.978 45.762,41.981 45.123,40.004 44.484,41.981    42.408,41.978 44.089,43.197  "></polygon><polygon points="56.622,41.981 55.988,40.004 55.35,41.981 53.269,41.978 54.953,43.197 54.307,45.171 55.988,43.947    57.665,45.171 57.018,43.197 58.703,41.978  "></polygon><polygon points="15.715,49.483 17.395,48.257 19.074,49.483 18.427,47.507 20.11,46.29 18.033,46.293 17.395,44.318 16.756,46.293    14.679,46.29 16.362,47.507  "></polygon><polygon points="26.579,49.483 28.258,48.257 29.938,49.483 29.291,47.507 30.974,46.29 28.897,46.293 28.258,44.318 27.62,46.293    25.543,46.29 27.226,47.507  "></polygon><polygon points="37.744,49.483 39.42,48.257 41.102,49.483 40.455,47.507 42.138,46.29 40.059,46.293 39.42,44.318 38.782,46.293    36.705,46.29 38.391,47.507  "></polygon><polygon points="49.075,49.483 50.752,48.257 52.432,49.483 51.786,47.507 53.466,46.29 51.391,46.293 50.752,44.318    50.113,46.293 48.037,46.29 49.72,47.507  "></polygon><polygon points="59.936,49.483 61.616,48.257 63.293,49.483 62.646,47.507 64.332,46.29 62.255,46.293 61.616,44.318    60.978,46.293 58.901,46.29 60.582,47.507  "></polygon></g></svg>